<?xml version="1.0" standalone="no"?>
<!DOCTYPE svg PUBLIC "-//W3C//DTD SVG 20010904//EN"
 "http://www.w3.org/TR/2001/REC-SVG-20010904/DTD/svg10.dtd">
<svg version="1.0" xmlns="http://www.w3.org/2000/svg"
 width="512.000000pt" height="512.000000pt" viewBox="0 0 512.000000 512.000000"
 preserveAspectRatio="xMidYMid meet">

<g transform="translate(0.000000,512.000000) scale(0.100000,-0.100000)"
fill="#000000" stroke="none">
<path d="M311 3766 c-7 -8 -63 -304 -125 -658 -95 -538 -111 -646 -101 -663
12 -19 25 -20 238 -23 l226 -2 58 58 c83 82 174 121 288 122 349 1 500 -410
252 -686 -108 -119 -264 -152 -403 -83 -92 47 -171 153 -182 245 -2 24 -10 48
-17 54 -8 7 -104 9 -270 8 -304 -3 -286 4 -266 -115 52 -315 274 -560 581
-642 430 -115 861 18 1080 334 22 33 44 58 48 56 4 -3 28 -35 53 -71 111 -158
295 -286 484 -336 112 -30 321 -26 447 9 53 14 126 39 162 56 144 65 320 200
436 334 l65 75 110 -107 c131 -127 200 -181 320 -250 288 -165 577 -185 838
-57 229 111 384 311 459 591 18 65 22 107 22 230 -1 129 -4 163 -26 246 -91
339 -311 560 -622 623 -91 19 -258 22 -346 6 -241 -44 -469 -180 -672 -401
l-82 -90 -85 92 c-256 276 -528 410 -831 410 -192 0 -323 -43 -473 -153 -82
-61 -138 -124 -209 -234 -29 -46 -56 -83 -60 -84 -3 0 -21 24 -38 53 -18 28
-69 88 -114 133 -128 126 -255 180 -451 191 -154 8 -329 -29 -417 -89 -14 -10
-28 -18 -30 -18 -4 0 45 312 57 368 l5 22 480 0 c464 0 480 1 490 19 6 12 10
99 10 215 0 164 -3 197 -16 210 -14 14 -90 16 -688 16 -571 0 -675 -2 -685
-14z m2240 -1192 c73 -21 170 -73 251 -134 88 -67 218 -189 218 -205 0 -21
-178 -182 -266 -241 -106 -70 -192 -105 -275 -112 -126 -9 -225 42 -281 145
-32 59 -58 151 -58 208 0 101 62 242 128 293 75 58 183 75 283 46z m1828 -1
c103 -33 176 -128 205 -267 17 -81 8 -158 -28 -240 -123 -277 -443 -239 -772
92 l-76 77 97 94 c220 211 418 295 574 244z"/>
</g>
</svg>
